{"title":"Shrek 2001 DVDrip Dutch English Klam","uid":6549615,"size":1719463008,"categoryP":"video","categoryS":"movies","magnet":"?xt=urn:btih:4e03a6dcce0fa7de076169661f45f1a7a6ca7f9d&amp;dn=Shrek+2001+DVDrip+Dutch+English+Klam&amp;tr=udp%3A%2F%2Ftracker.openbittorrent.com%3A80&amp;tr=udp%3A%2F%2Fopen.demonii.com%3A1337&amp;tr=udp%3A%2F%2Ftracker.coppersurfer.tk%3A6969&amp;tr=udp%3A%2F%2Fexodus.desync.com%3A6969","seeders":1,"leechers":0,"uploader":"Klambake","files":-1,"time":1311022705,"description":"Dutch or English spoken\nNederlands of Engels gesproken\n\nNederlands gesproken versie met bekende Nederlandse stemmen,\nDe slechte heerser van Duloc (de kleine Lord Farquaad) heeft alle sprookjesfiguren uit zijn land verbannen. De figuren, inclusief een praatgrage ezel, vluchten naar het moerasland van de oger Shrek, die erg op z'n privacy gesteld is. Farquaad maakt een deal met Shrek: als hij de mooie prinses Fiona redt uit een kasteel dat bewaakt wordt door een draak, krijgt Shrek z'n land terug.\n\nWith the voices of Mike Myers, Cameron Diaz and Eddie Murphy,\nAn ogre, in order to regain his swamp, travels along with an annoying donkey in order to bring a princess to a scheming lord, wishing himself King. \n\n------------------ Dutch Friends ------------------\nYou can find my Friends at: http://www.Film-Test.nl \n------ They got my dutchs subs ---- and more ------\n\nGeneral:\n\nComplete name                    : Shrek\\Shrek.avi\nFormat                           : AVI\nFormat/Info                      : Audio Video Interleave\nFile size                        : 1.60 GiB\nDuration                         : 1h 26mn\nOverall bit rate                 : 2 654 Kbps\n\nVideo:\n\nFormat                           : MPEG-4 Visual\nFormat profile                   : Simple@L3\nFormat settings, BVOP            : No\nFormat settings, QPel            : No\nFormat settings, GMC             : No warppoints\nFormat settings, Matrix          : Default (H.263)\nCodec ID                         : XVID\nCodec ID/Hint                    : XviD\nDuration                         : 1h 26mn\nBit rate                         : 1 741 Kbps\nWidth                            : 652 pixels\nHeight                           : 352 pixels\nDisplay aspect ratio             : 1.852\nFrame rate                       : 25.000 fps\nColor space                      : YUV\nChroma subsampling               : 4:2:0\nBit depth                        : 8 bits\nScan type                        : Progressive\nBits/(Pixel*Frame)               : 0.303\nStream size                      : 1.05 GiB (66%)\nWriting library                  : XviD 1.1.2 (UTC 2006-11-01)\n\nAudio's:\n\nFormat                           : AC-3\nFormat/Info                      : Audio Coding 3\nMode extension                   : CM (complete main)\nCodec ID                         : 2000\nDuration                         : 1h 26mn\nBit rate mode                    : Constant\nBit rate                         : 448 Kbps\nChannel(s)                       : 6 channels\nChannel positions                : Front: L C R, Side: L R, LFE\nSampling rate                    : 48.0 KHz\nBit depth                        : 16 bits\nStream size                      : 277 MiB (17%)\nAlignment                        : Aligned on interleaves\nInterleave, duration             : 32 ms (0.80 video frame)\nInterleave, preload duration     : 32 ms\n\n\n\n","torrent":{"xt":"urn:btih:4e03a6dcce0fa7de076169661f45f1a7a6ca7f9d","amp;dn":"Shrek+2001+DVDrip+Dutch+English+Klam","amp;tr":["udp%3A%2F%2Ftracker.openbittorrent.com%3A80","udp%3A%2F%2Fopen.demonii.com%3A1337","udp%3A%2F%2Ftracker.coppersurfer.tk%3A6969","udp%3A%2F%2Fexodus.desync.com%3A6969"],"infoHash":"4e03a6dcce0fa7de076169661f45f1a7a6ca7f9d","infoHashBuffer":{"type":"Buffer","data":[78,3,166,220,206,15,167,222,7,97,105,102,31,69,241,167,166,202,127,157]},"announce":[],"urlList":[]}}